<mxfile host="app.diagrams.net" modified="2023-06-08T19:07:13.128Z" agent="Mozilla/5.0 (Windows NT 10.0; Win64; x64; rv:109.0) Gecko/20100101 Firefox/114.0" etag="xwy3t4Ut92OsjHrK_lqh" version="21.3.7" type="github">
  <diagram name="Page-1" id="oKKbvnwR4FTu0nKzDhon">
    <mxGraphModel dx="2100" dy="1532" grid="0" gridSize="10" guides="1" tooltips="1" connect="1" arrows="1" fold="1" page="0" pageScale="1" pageWidth="850" pageHeight="1100" background="#ffffff" math="0" shadow="0">
      <root>
        <mxCell id="0" />
        <mxCell id="1" parent="0" />
        <mxCell id="Lv291W0Pq6ssozdBXGie-1" value="&lt;font style=&quot;font-size: 30px;&quot;&gt;Read Data from Mailbox&lt;br&gt;&lt;/font&gt;" style="shape=cube;whiteSpace=wrap;html=1;boundedLbl=1;backgroundOutline=1;darkOpacity=0.05;darkOpacity2=0.1;labelBackgroundColor=none;fillColor=#09555B;strokeColor=#BAC8D3;fontColor=#EEEEEE;" vertex="1" parent="1">
          <mxGeometry x="191" y="5" width="457" height="80" as="geometry" />
        </mxCell>
        <mxCell id="Lv291W0Pq6ssozdBXGie-2" value="&lt;font style=&quot;font-size: 30px;&quot;&gt;Lock Mutex&lt;/font&gt;" style="shape=cube;whiteSpace=wrap;html=1;boundedLbl=1;backgroundOutline=1;darkOpacity=0.05;darkOpacity2=0.1;labelBackgroundColor=none;fillColor=#09555B;strokeColor=#BAC8D3;fontColor=#EEEEEE;" vertex="1" parent="1">
          <mxGeometry x="191" y="149" width="457" height="80" as="geometry" />
        </mxCell>
        <mxCell id="Lv291W0Pq6ssozdBXGie-3" value="&lt;font style=&quot;font-size: 30px;&quot;&gt;Send/Received Value to BRAM&lt;br&gt;&lt;/font&gt;" style="shape=cube;whiteSpace=wrap;html=1;boundedLbl=1;backgroundOutline=1;darkOpacity=0.05;darkOpacity2=0.1;labelBackgroundColor=none;fillColor=#09555B;strokeColor=#BAC8D3;fontColor=#EEEEEE;" vertex="1" parent="1">
          <mxGeometry x="191" y="293" width="457" height="80" as="geometry" />
        </mxCell>
        <mxCell id="Lv291W0Pq6ssozdBXGie-4" value="&lt;font style=&quot;font-size: 30px;&quot;&gt;Unlock Mutex&lt;br&gt;&lt;/font&gt;" style="shape=cube;whiteSpace=wrap;html=1;boundedLbl=1;backgroundOutline=1;darkOpacity=0.05;darkOpacity2=0.1;labelBackgroundColor=none;fillColor=#09555B;strokeColor=#BAC8D3;fontColor=#EEEEEE;" vertex="1" parent="1">
          <mxGeometry x="191" y="437" width="457" height="80" as="geometry" />
        </mxCell>
        <mxCell id="Lv291W0Pq6ssozdBXGie-6" value="" style="endArrow=classic;html=1;rounded=0;strokeColor=#0B4D6A;" edge="1" parent="1" source="Lv291W0Pq6ssozdBXGie-1">
          <mxGeometry width="50" height="50" relative="1" as="geometry">
            <mxPoint x="419.5" y="135" as="sourcePoint" />
            <mxPoint x="420" y="150" as="targetPoint" />
          </mxGeometry>
        </mxCell>
        <mxCell id="Lv291W0Pq6ssozdBXGie-12" value="" style="endArrow=classic;html=1;rounded=0;strokeColor=#0B4D6A;" edge="1" parent="1">
          <mxGeometry width="50" height="50" relative="1" as="geometry">
            <mxPoint x="419" y="229" as="sourcePoint" />
            <mxPoint x="419" y="294" as="targetPoint" />
          </mxGeometry>
        </mxCell>
        <mxCell id="Lv291W0Pq6ssozdBXGie-13" value="" style="endArrow=classic;html=1;rounded=0;strokeColor=#0B4D6A;" edge="1" parent="1">
          <mxGeometry width="50" height="50" relative="1" as="geometry">
            <mxPoint x="419" y="372" as="sourcePoint" />
            <mxPoint x="419" y="437" as="targetPoint" />
          </mxGeometry>
        </mxCell>
        <mxCell id="Lv291W0Pq6ssozdBXGie-14" value="" style="whiteSpace=wrap;html=1;aspect=fixed;strokeColor=#BAC8D3;fontColor=#EEEEEE;fillColor=#09555B;gradientColor=default;opacity=25;" vertex="1" parent="1">
          <mxGeometry x="22" y="-174" width="795" height="795" as="geometry" />
        </mxCell>
        <mxCell id="Lv291W0Pq6ssozdBXGie-15" value="&lt;div&gt;&lt;font color=&quot;#09555b&quot;&gt;&lt;b&gt;&lt;font style=&quot;font-size: 60px;&quot;&gt;Microblaze Interrupt&lt;br&gt;&lt;/font&gt;&lt;/b&gt;&lt;/font&gt;&lt;/div&gt;&lt;div&gt;&lt;font color=&quot;#09555b&quot;&gt;&lt;b&gt;&lt;font style=&quot;font-size: 60px;&quot;&gt;BLOCK&lt;br&gt;&lt;/font&gt;&lt;/b&gt;&lt;/font&gt;&lt;/div&gt;" style="text;html=1;strokeColor=none;fillColor=none;align=center;verticalAlign=middle;whiteSpace=wrap;rounded=0;fontColor=#EEEEEE;" vertex="1" parent="1">
          <mxGeometry x="21.5" y="-355" width="796" height="173" as="geometry" />
        </mxCell>
      </root>
    </mxGraphModel>
  </diagram>
</mxfile>
